<?xml version="1.0" encoding="UTF-8" standalone="no"?>
<!DOCTYPE svg PUBLIC "-//W3C//DTD SVG 1.1//EN"
 "http://www.w3.org/Graphics/SVG/1.1/DTD/svg11.dtd">
<!-- Generated by graphviz version 14.1.4 (20260321.0153)
 -->
<!-- Title: Flow Pages: 1 -->
<svg width="1049pt" height="1307pt"
 viewBox="0.00 0.00 1049.00 1307.00" xmlns="http://www.w3.org/2000/svg" xmlns:xlink="http://www.w3.org/1999/xlink">
<g id="graph0" class="graph" transform="scale(1 1) rotate(0) translate(72 1234.8)">
<title>Flow</title>
<polygon fill="#0d1117" stroke="none" points="-72,72 -72,-1234.8 977,-1234.8 977,72 -72,72"/>
<g id="clust1" class="cluster">
<title>cluster_entry</title>
<path fill="#0d1117" stroke="#1f6feb" stroke-width="2" stroke-dasharray="5,2" d="M20,-750.5C20,-750.5 198,-750.5 198,-750.5 204,-750.5 210,-756.5 210,-762.5 210,-762.5 210,-1142.8 210,-1142.8 210,-1148.8 204,-1154.8 198,-1154.8 198,-1154.8 20,-1154.8 20,-1154.8 14,-1154.8 8,-1148.8 8,-1142.8 8,-1142.8 8,-762.5 8,-762.5 8,-756.5 14,-750.5 20,-750.5"/>
<text xml:space="preserve" text-anchor="start" x="53.12" y="-1138.5" font-family="Helvetica Neue,Helvetica,Arial,sans-serif" font-weight="bold" font-size="14.00" fill="#58a6ff">A. Request Entry</text>
</g>
<g id="clust2" class="cluster">
<title>cluster_auth</title>
<path fill="#0d1117" stroke="#d29922" stroke-width="2" stroke-dasharray="5,2" d="M230,-603.1C230,-603.1 489,-603.1 489,-603.1 495,-603.1 501,-609.1 501,-615.1 501,-615.1 501,-898.6 501,-898.6 501,-904.6 495,-910.6 489,-910.6 489,-910.6 230,-910.6 230,-910.6 224,-910.6 218,-904.6 218,-898.6 218,-898.6 218,-615.1 218,-615.1 218,-609.1 224,-603.1 230,-603.1"/>
<text xml:space="preserve" text-anchor="start" x="301.38" y="-894.3" font-family="Helvetica Neue,Helvetica,Arial,sans-serif" font-weight="bold" font-size="14.00" fill="#d29922">B. Authentication</text>
</g>
<g id="clust3" class="cluster">
<title>cluster_processing</title>
<path fill="#0d1117" stroke="#3fb950" stroke-width="2" stroke-dasharray="5,2" d="M521,-267.5C521,-267.5 685,-267.5 685,-267.5 691,-267.5 697,-273.5 697,-279.5 697,-279.5 697,-730.5 697,-730.5 697,-736.5 691,-742.5 685,-742.5 685,-742.5 521,-742.5 521,-742.5 515,-742.5 509,-736.5 509,-730.5 509,-730.5 509,-279.5 509,-279.5 509,-273.5 515,-267.5 521,-267.5"/>
<text xml:space="preserve" text-anchor="start" x="538.88" y="-726.2" font-family="Helvetica Neue,Helvetica,Arial,sans-serif" font-weight="bold" font-size="14.00" fill="#3fb950">C. Core Processing</text>
</g>
<g id="clust4" class="cluster">
<title>cluster_response</title>
<path fill="#0d1117" stroke="#f85149" stroke-width="2" stroke-dasharray="5,2" d="M449,-8C449,-8 656,-8 656,-8 662,-8 668,-14 668,-20 668,-20 668,-247.5 668,-247.5 668,-253.5 662,-259.5 656,-259.5 656,-259.5 449,-259.5 449,-259.5 443,-259.5 437,-253.5 437,-247.5 437,-247.5 437,-20 437,-20 437,-14 443,-8 449,-8"/>
<text xml:space="preserve" text-anchor="start" x="510.5" y="-243.2" font-family="Helvetica Neue,Helvetica,Arial,sans-serif" font-weight="bold" font-size="14.00" fill="#f85149">D. Response</text>
</g>
<g id="clust5" class="cluster">
<title>cluster_errors</title>
<path fill="#0d1117" stroke="#a371f7" stroke-width="2" stroke-dasharray="5,2" d="M717,-8C717,-8 885,-8 885,-8 891,-8 897,-14 897,-20 897,-20 897,-394.9 897,-394.9 897,-400.9 891,-406.9 885,-406.9 885,-406.9 717,-406.9 717,-406.9 711,-406.9 705,-400.9 705,-394.9 705,-394.9 705,-20 705,-20 705,-14 711,-8 717,-8"/>
<text xml:space="preserve" text-anchor="start" x="744.75" y="-390.6" font-family="Helvetica Neue,Helvetica,Arial,sans-serif" font-weight="bold" font-size="14.00" fill="#a371f7">E. Error Handling</text>
</g>
<!-- start -->
<g id="node1" class="node">
<title>start</title>
<path fill="#1f6feb" stroke="black" stroke-width="0" d="M132.46,-1092.8C132.46,-1092.8 85.54,-1092.8 85.54,-1092.8 79.54,-1092.8 73.54,-1086.8 73.54,-1080.8 73.54,-1080.8 73.54,-1063.4 73.54,-1063.4 73.54,-1057.4 79.54,-1051.4 85.54,-1051.4 85.54,-1051.4 132.46,-1051.4 132.46,-1051.4 138.46,-1051.4 144.46,-1057.4 144.46,-1063.4 144.46,-1063.4 144.46,-1080.8 144.46,-1080.8 144.46,-1086.8 138.46,-1092.8 132.46,-1092.8"/>
<text xml:space="preserve" text-anchor="middle" x="109" y="-1075.15" font-family="Helvetica Neue,Helvetica,Arial,sans-serif" font-size="11.00" fill="#ffffff">Incoming</text>
<text xml:space="preserve" text-anchor="middle" x="109" y="-1061.65" font-family="Helvetica Neue,Helvetica,Arial,sans-serif" font-size="11.00" fill="#ffffff">Request</text>
</g>
<!-- validate -->
<g id="node2" class="node">
<title>validate</title>
<path fill="#1c2028" stroke="black" stroke-width="1.5" d="M98.88,-994.95C98.88,-994.95 54.2,-966.45 54.2,-966.45 49.14,-963.23 49.14,-956.77 54.2,-953.55 54.2,-953.55 98.88,-925.05 98.88,-925.05 103.94,-921.83 114.06,-921.83 119.12,-925.05 119.12,-925.05 163.8,-953.55 163.8,-953.55 168.86,-956.77 168.86,-963.23 163.8,-966.45 163.8,-966.45 119.12,-994.95 119.12,-994.95 114.06,-998.17 103.94,-998.17 98.88,-994.95"/>
<text xml:space="preserve" text-anchor="middle" x="109" y="-963.05" font-family="Helvetica Neue,Helvetica,Arial,sans-serif" font-size="11.00" fill="#c9d1d9">Validate</text>
<text xml:space="preserve" text-anchor="middle" x="109" y="-949.55" font-family="Helvetica Neue,Helvetica,Arial,sans-serif" font-size="11.00" fill="#c9d1d9">Input</text>
</g>
<!-- start&#45;&gt;validate -->
<g id="edge1" class="edge">
<title>start&#45;&gt;validate</title>
<path fill="none" stroke="#484f58" stroke-width="1.3" d="M109,-1051.42C109,-1039.94 109,-1024.9 109,-1010.4"/>
<polygon fill="#484f58" stroke="#484f58" stroke-width="1.3" points="109,-1003.53 112.15,-1010.53 109.15,-1005.45 109.15,-1010.53 109,-1010.53 108.85,-1010.53 108.85,-1005.45 105.85,-1010.53 109,-1003.53"/>
</g>
<!-- reject -->
<g id="node3" class="node">
<title>reject</title>
<path fill="#3d1115" stroke="#f85149" stroke-width="1.5" d="M142.21,-827.9C142.21,-827.9 75.79,-827.9 75.79,-827.9 69.79,-827.9 63.79,-821.9 63.79,-815.9 63.79,-815.9 63.79,-798.5 63.79,-798.5 63.79,-792.5 69.79,-786.5 75.79,-786.5 75.79,-786.5 142.21,-786.5 142.21,-786.5 148.21,-786.5 154.21,-792.5 154.21,-798.5 154.21,-798.5 154.21,-815.9 154.21,-815.9 154.21,-821.9 148.21,-827.9 142.21,-827.9"/>
<text xml:space="preserve" text-anchor="middle" x="109" y="-810.25" font-family="Helvetica Neue,Helvetica,Arial,sans-serif" font-size="11.00" fill="#f85149">400</text>
<text xml:space="preserve" text-anchor="middle" x="109" y="-796.75" font-family="Helvetica Neue,Helvetica,Arial,sans-serif" font-size="11.00" fill="#f85149">Bad Request</text>
</g>
<!-- validate&#45;&gt;reject -->
<g id="edge3" class="edge">
<title>validate&#45;&gt;reject</title>
<path fill="none" stroke="#f85149" stroke-width="1.3" d="M109,-917.79C109,-892.23 109,-860.02 109,-837.15"/>
<polygon fill="#f85149" stroke="#f85149" stroke-width="1.3" points="109,-830.16 112.15,-837.16 109.15,-832.08 109.15,-837.16 109,-837.16 108.85,-837.16 108.85,-832.08 105.85,-837.16 109,-830.16"/>
<text xml:space="preserve" text-anchor="middle" x="126.5" y="-883.98" font-family="Helvetica Neue,Helvetica,Arial,sans-serif" font-size="10.00" fill="#f85149"> &#160;invalid &#160;</text>
</g>
<!-- auth -->
<g id="node4" class="node">
<title>auth</title>
<path fill="#1c2028" stroke="black" stroke-width="1.5" d="M348.28,-843.2C348.28,-843.2 287.55,-812.6 287.55,-812.6 282.19,-809.9 282.19,-804.5 287.55,-801.8 287.55,-801.8 348.28,-771.2 348.28,-771.2 353.64,-768.5 364.36,-768.5 369.72,-771.2 369.72,-771.2 430.45,-801.8 430.45,-801.8 435.81,-804.5 435.81,-809.9 430.45,-812.6 430.45,-812.6 369.72,-843.2 369.72,-843.2 364.36,-845.9 353.64,-845.9 348.28,-843.2"/>
<text xml:space="preserve" text-anchor="middle" x="359" y="-810.25" font-family="Helvetica Neue,Helvetica,Arial,sans-serif" font-size="11.00" fill="#c9d1d9">Check</text>
<text xml:space="preserve" text-anchor="middle" x="359" y="-796.75" font-family="Helvetica Neue,Helvetica,Arial,sans-serif" font-size="11.00" fill="#c9d1d9">Credentials</text>
</g>
<!-- validate&#45;&gt;auth -->
<g id="edge2" class="edge">
<title>validate&#45;&gt;auth</title>
<path fill="none" stroke="#3fb950" stroke-width="1.3" d="M149.61,-943.84C171.1,-935.19 197.6,-923.52 220,-910.6 256.38,-889.62 294.58,-860.93 321.71,-839.25"/>
<polygon fill="#3fb950" stroke="#3fb950" stroke-width="1.3" points="327.13,-834.89 323.65,-841.74 325.73,-836.21 321.77,-839.4 321.67,-839.28 321.58,-839.17 325.54,-835.98 319.7,-836.83 327.13,-834.89"/>
<text xml:space="preserve" text-anchor="middle" x="184.28" y="-945.11" font-family="Helvetica Neue,Helvetica,Arial,sans-serif" font-size="10.00" fill="#3fb950"> &#160;valid &#160;</text>
</g>
<!-- denied -->
<g id="node5" class="node">
<title>denied</title>
<path fill="#f85149" stroke="black" stroke-width="0" d="M333.96,-680.5C333.96,-680.5 266.04,-680.5 266.04,-680.5 260.04,-680.5 254.04,-674.5 254.04,-668.5 254.04,-668.5 254.04,-651.1 254.04,-651.1 254.04,-645.1 260.04,-639.1 266.04,-639.1 266.04,-639.1 333.96,-639.1 333.96,-639.1 339.96,-639.1 345.96,-645.1 345.96,-651.1 345.96,-651.1 345.96,-668.5 345.96,-668.5 345.96,-674.5 339.96,-680.5 333.96,-680.5"/>
<text xml:space="preserve" text-anchor="middle" x="300" y="-662.85" font-family="Helvetica Neue,Helvetica,Arial,sans-serif" font-size="11.00" fill="#ffffff">401</text>
<text xml:space="preserve" text-anchor="middle" x="300" y="-649.35" font-family="Helvetica Neue,Helvetica,Arial,sans-serif" font-size="11.00" fill="#ffffff">Unauthorized</text>
</g>
<!-- auth&#45;&gt;denied -->
<g id="edge6" class="edge">
<title>auth&#45;&gt;denied</title>
<path fill="none" stroke="#f85149" stroke-width="1.3" d="M345.17,-772.11C334.81,-746.58 320.82,-712.1 311.17,-688.32"/>
<polygon fill="#f85149" stroke="#f85149" stroke-width="1.3" points="308.54,-681.85 314.09,-687.15 309.4,-683.57 311.31,-688.28 311.17,-688.34 311.04,-688.39 309.12,-683.68 308.26,-689.52 308.54,-681.85"/>
<text xml:space="preserve" text-anchor="middle" x="349.99" y="-733.94" font-family="Helvetica Neue,Helvetica,Arial,sans-serif" font-size="10.00" fill="#f85149"> &#160;fail &#160;</text>
</g>
<!-- rate_warn -->
<g id="node6" class="node">
<title>rate_warn</title>
<path fill="#2d1d00" stroke="#d29922" stroke-width="1.5" d="M453.08,-680.5C453.08,-680.5 400.92,-680.5 400.92,-680.5 394.92,-680.5 388.92,-674.5 388.92,-668.5 388.92,-668.5 388.92,-651.1 388.92,-651.1 388.92,-645.1 394.92,-639.1 400.92,-639.1 400.92,-639.1 453.08,-639.1 453.08,-639.1 459.08,-639.1 465.08,-645.1 465.08,-651.1 465.08,-651.1 465.08,-668.5 465.08,-668.5 465.08,-674.5 459.08,-680.5 453.08,-680.5"/>
<text xml:space="preserve" text-anchor="middle" x="427" y="-662.85" font-family="Helvetica Neue,Helvetica,Arial,sans-serif" font-size="11.00" fill="#d29922">Rate Limit</text>
<text xml:space="preserve" text-anchor="middle" x="427" y="-649.35" font-family="Helvetica Neue,Helvetica,Arial,sans-serif" font-size="11.00" fill="#d29922">Warning</text>
</g>
<!-- auth&#45;&gt;rate_warn -->
<g id="edge4" class="edge">
<title>auth&#45;&gt;rate_warn</title>
<path fill="none" stroke="#d29922" stroke-width="1.3" stroke-dasharray="1,5" d="M374.6,-772.84C386.51,-747.38 402.72,-712.71 413.95,-688.71"/>
<polygon fill="#d29922" stroke="#d29922" stroke-width="1.3" points="416.88,-682.44 416.77,-690.12 416.2,-684.24 414.05,-688.85 413.91,-688.78 413.78,-688.72 415.93,-684.11 411.06,-687.45 416.88,-682.44"/>
<text xml:space="preserve" text-anchor="middle" x="403.29" y="-749.3" font-family="Helvetica Neue,Helvetica,Arial,sans-serif" font-size="10.00" fill="#d29922"> &#160;near limit &#160;</text>
</g>
<!-- process -->
<g id="node7" class="node">
<title>process</title>
<path fill="#0d2818" stroke="#3fb950" stroke-width="1.5" d="M624.59,-680.5C624.59,-680.5 581.41,-680.5 581.41,-680.5 575.41,-680.5 569.41,-674.5 569.41,-668.5 569.41,-668.5 569.41,-651.1 569.41,-651.1 569.41,-645.1 575.41,-639.1 581.41,-639.1 581.41,-639.1 624.59,-639.1 624.59,-639.1 630.59,-639.1 636.59,-645.1 636.59,-651.1 636.59,-651.1 636.59,-668.5 636.59,-668.5 636.59,-674.5 630.59,-680.5 624.59,-680.5"/>
<text xml:space="preserve" text-anchor="middle" x="603" y="-662.85" font-family="Helvetica Neue,Helvetica,Arial,sans-serif" font-size="11.00" fill="#c9d1d9">Process</text>
<text xml:space="preserve" text-anchor="middle" x="603" y="-649.35" font-family="Helvetica Neue,Helvetica,Arial,sans-serif" font-size="11.00" fill="#c9d1d9">Request</text>
</g>
<!-- auth&#45;&gt;process -->
<g id="edge5" class="edge">
<title>auth&#45;&gt;process</title>
<path fill="none" stroke="#3fb950" stroke-width="1.3" d="M408.59,-790.12C439.32,-779.04 478.91,-762.69 511,-742.5 536.02,-726.76 560.87,-704.17 578.42,-686.73"/>
<polygon fill="#3fb950" stroke="#3fb950" stroke-width="1.3" points="582.97,-682.16 580.27,-689.34 581.72,-683.62 578.14,-687.23 578.03,-687.12 577.93,-687.02 581.51,-683.41 575.8,-684.9 582.97,-682.16"/>
<text xml:space="preserve" text-anchor="middle" x="443.08" y="-792.59" font-family="Helvetica Neue,Helvetica,Arial,sans-serif" font-size="10.00" fill="#3fb950"> &#160;ok &#160;</text>
</g>
<!-- cache_chk -->
<g id="node8" class="node">
<title>cache_chk</title>
<path fill="#1c2028" stroke="black" stroke-width="1.5" d="M593.22,-582.14C593.22,-582.14 554.61,-554.66 554.61,-554.66 549.72,-551.18 549.72,-544.22 554.61,-540.74 554.61,-540.74 593.22,-513.26 593.22,-513.26 598.11,-509.78 607.89,-509.78 612.78,-513.26 612.78,-513.26 651.39,-540.74 651.39,-540.74 656.28,-544.22 656.28,-551.18 651.39,-554.66 651.39,-554.66 612.78,-582.14 612.78,-582.14 607.89,-585.62 598.11,-585.62 593.22,-582.14"/>
<text xml:space="preserve" text-anchor="middle" x="603" y="-550.75" font-family="Helvetica Neue,Helvetica,Arial,sans-serif" font-size="11.00" fill="#c9d1d9">Cache</text>
<text xml:space="preserve" text-anchor="middle" x="603" y="-537.25" font-family="Helvetica Neue,Helvetica,Arial,sans-serif" font-size="11.00" fill="#c9d1d9">Hit?</text>
</g>
<!-- process&#45;&gt;cache_chk -->
<g id="edge7" class="edge">
<title>process&#45;&gt;cache_chk</title>
<path fill="none" stroke="#484f58" stroke-width="1.3" d="M603,-638.61C603,-627.19 603,-612.37 603,-598.08"/>
<polygon fill="#484f58" stroke="#484f58" stroke-width="1.3" points="603,-591.33 606.15,-598.33 603.15,-593.25 603.15,-598.33 603,-598.33 602.85,-598.33 602.85,-593.25 599.85,-598.33 603,-591.33"/>
</g>
<!-- compute -->
<g id="node9" class="node">
<title>compute</title>
<path fill="#0d2818" stroke="#3fb950" stroke-width="1.5" d="M649.21,-456.3C649.21,-456.3 600.79,-456.3 600.79,-456.3 594.79,-456.3 588.79,-450.3 588.79,-444.3 588.79,-444.3 588.79,-426.9 588.79,-426.9 588.79,-420.9 594.79,-414.9 600.79,-414.9 600.79,-414.9 649.21,-414.9 649.21,-414.9 655.21,-414.9 661.21,-420.9 661.21,-426.9 661.21,-426.9 661.21,-444.3 661.21,-444.3 661.21,-450.3 655.21,-456.3 649.21,-456.3"/>
<text xml:space="preserve" text-anchor="middle" x="625" y="-438.65" font-family="Helvetica Neue,Helvetica,Arial,sans-serif" font-size="11.00" fill="#c9d1d9">Compute</text>
<text xml:space="preserve" text-anchor="middle" x="625" y="-425.15" font-family="Helvetica Neue,Helvetica,Arial,sans-serif" font-size="11.00" fill="#c9d1d9">Result</text>
</g>
<!-- cache_chk&#45;&gt;compute -->
<g id="edge9" class="edge">
<title>cache_chk&#45;&gt;compute</title>
<path fill="none" stroke="#f85149" stroke-width="1.3" d="M610.2,-510.65C613.15,-495.9 616.51,-479.08 619.29,-465.2"/>
<polygon fill="#f85149" stroke="#f85149" stroke-width="1.3" points="620.62,-458.53 622.33,-466.01 620.39,-460.44 619.39,-465.43 619.25,-465.4 619.1,-465.37 620.1,-460.38 616.16,-464.78 620.62,-458.53"/>
<text xml:space="preserve" text-anchor="middle" x="633.3" y="-480.85" font-family="Helvetica Neue,Helvetica,Arial,sans-serif" font-size="10.00" fill="#f85149"> &#160;miss &#160;</text>
</g>
<!-- respond -->
<g id="node11" class="node">
<title>respond</title>
<path fill="#3d1115" stroke="#f85149" stroke-width="1.5" d="M577.34,-197.5C577.34,-197.5 526.66,-197.5 526.66,-197.5 520.66,-197.5 514.66,-191.5 514.66,-185.5 514.66,-185.5 514.66,-168.1 514.66,-168.1 514.66,-162.1 520.66,-156.1 526.66,-156.1 526.66,-156.1 577.34,-156.1 577.34,-156.1 583.34,-156.1 589.34,-162.1 589.34,-168.1 589.34,-168.1 589.34,-185.5 589.34,-185.5 589.34,-191.5 583.34,-197.5 577.34,-197.5"/>
<text xml:space="preserve" text-anchor="middle" x="552" y="-179.85" font-family="Helvetica Neue,Helvetica,Arial,sans-serif" font-size="11.00" fill="#c9d1d9">Build</text>
<text xml:space="preserve" text-anchor="middle" x="552" y="-166.35" font-family="Helvetica Neue,Helvetica,Arial,sans-serif" font-size="11.00" fill="#c9d1d9">Response</text>
</g>
<!-- cache_chk&#45;&gt;respond -->
<g id="edge8" class="edge">
<title>cache_chk&#45;&gt;respond</title>
<path fill="none" stroke="#3fb950" stroke-width="2.5" d="M587.93,-516.11C580.22,-498.96 571.53,-476.92 567,-456.3 547.5,-367.59 548.52,-259.36 550.46,-207.84"/>
<polygon fill="#3fb950" stroke="#3fb950" stroke-width="2.5" points="550.74,-201.07 553.6,-208.19 551.47,-201.55 551.2,-208.09 550.45,-208.06 549.7,-208.03 549.98,-201.49 547.31,-207.93 550.74,-201.07"/>
<text xml:space="preserve" text-anchor="middle" x="591.68" y="-477.81" font-family="Helvetica Neue,Helvetica,Arial,sans-serif" font-size="10.00" fill="#3fb950"> &#160;hit &#160;</text>
</g>
<!-- cache_set -->
<g id="node10" class="node">
<title>cache_set</title>
<path fill="#1c2028" stroke="#484f58" stroke-width="1.5" d="M642.71,-344.9C642.71,-344.9 603.29,-344.9 603.29,-344.9 597.29,-344.9 591.29,-338.9 591.29,-332.9 591.29,-332.9 591.29,-315.5 591.29,-315.5 591.29,-309.5 597.29,-303.5 603.29,-303.5 603.29,-303.5 642.71,-303.5 642.71,-303.5 648.71,-303.5 654.71,-309.5 654.71,-315.5 654.71,-315.5 654.71,-332.9 654.71,-332.9 654.71,-338.9 648.71,-344.9 642.71,-344.9"/>
<text xml:space="preserve" text-anchor="middle" x="623" y="-327.25" font-family="Helvetica Neue,Helvetica,Arial,sans-serif" font-size="11.00" fill="#484f58">Update</text>
<text xml:space="preserve" text-anchor="middle" x="623" y="-313.75" font-family="Helvetica Neue,Helvetica,Arial,sans-serif" font-size="11.00" fill="#484f58">Cache</text>
</g>
<!-- compute&#45;&gt;cache_set -->
<g id="edge10" class="edge">
<title>compute&#45;&gt;cache_set</title>
<path fill="none" stroke="#484f58" stroke-width="1.3" d="M624.63,-414.28C624.32,-397.32 623.87,-372.93 623.53,-353.97"/>
<polygon fill="#484f58" stroke="#484f58" stroke-width="1.3" points="623.4,-347 626.68,-353.94 623.58,-348.91 623.68,-353.99 623.53,-353.99 623.38,-354 623.28,-348.91 620.38,-354.05 623.4,-347"/>
</g>
<!-- err -->
<g id="node14" class="node">
<title>err</title>
<path fill="#1c0d36" stroke="#a371f7" stroke-width="1.5" d="M790.59,-344.9C790.59,-344.9 753.41,-344.9 753.41,-344.9 747.41,-344.9 741.41,-338.9 741.41,-332.9 741.41,-332.9 741.41,-315.5 741.41,-315.5 741.41,-309.5 747.41,-303.5 753.41,-303.5 753.41,-303.5 790.59,-303.5 790.59,-303.5 796.59,-303.5 802.59,-309.5 802.59,-315.5 802.59,-315.5 802.59,-332.9 802.59,-332.9 802.59,-338.9 796.59,-344.9 790.59,-344.9"/>
<text xml:space="preserve" text-anchor="middle" x="772" y="-327.25" font-family="Helvetica Neue,Helvetica,Arial,sans-serif" font-size="11.00" fill="#c9d1d9">Handle</text>
<text xml:space="preserve" text-anchor="middle" x="772" y="-313.75" font-family="Helvetica Neue,Helvetica,Arial,sans-serif" font-size="11.00" fill="#c9d1d9">Error</text>
</g>
<!-- compute&#45;&gt;err -->
<g id="edge12" class="edge">
<title>compute&#45;&gt;err</title>
<path fill="none" stroke="#f85149" stroke-width="1.3" d="M661.8,-427C676.74,-422.73 693.6,-416.31 707,-406.9 727.43,-392.55 744.69,-370 756.28,-352.22"/>
<polygon fill="#f85149" stroke="#f85149" stroke-width="1.3" points="759.74,-346.76 758.65,-354.36 758.84,-348.46 756.12,-352.75 755.99,-352.67 755.86,-352.59 758.59,-348.3 753.33,-350.98 759.74,-346.76"/>
<text xml:space="preserve" text-anchor="middle" x="695.84" y="-431.65" font-family="Helvetica Neue,Helvetica,Arial,sans-serif" font-size="10.00" fill="#f85149"> &#160;error &#160;</text>
</g>
<!-- cache_set&#45;&gt;respond -->
<g id="edge11" class="edge">
<title>cache_set&#45;&gt;respond</title>
<path fill="none" stroke="#484f58" stroke-width="1.3" d="M613.13,-302.98C600.73,-277.59 579.4,-233.91 565.5,-205.44"/>
<polygon fill="#484f58" stroke="#484f58" stroke-width="1.3" points="562.48,-199.27 568.39,-204.18 563.46,-200.92 565.69,-205.49 565.55,-205.56 565.42,-205.62 563.19,-201.06 562.72,-206.94 562.48,-199.27"/>
</g>
<!-- ok -->
<g id="node12" class="node">
<title>ok</title>
<path fill="#0d2818" stroke="#3fb950" stroke-width="1.5" d="M523.34,-82.7C523.34,-82.7 484.67,-82.7 484.67,-82.7 478.67,-82.7 472.67,-76.7 472.67,-70.7 472.67,-70.7 472.67,-58.7 472.67,-58.7 472.67,-52.7 478.67,-46.7 484.67,-46.7 484.67,-46.7 523.34,-46.7 523.34,-46.7 529.34,-46.7 535.34,-52.7 535.34,-58.7 535.34,-58.7 535.34,-70.7 535.34,-70.7 535.34,-76.7 529.34,-82.7 523.34,-82.7"/>
<text xml:space="preserve" text-anchor="middle" x="504" y="-61" font-family="Helvetica Neue,Helvetica,Arial,sans-serif" font-size="11.00" fill="#3fb950">200 OK</text>
</g>
<!-- respond&#45;&gt;ok -->
<g id="edge14" class="edge">
<title>respond&#45;&gt;ok</title>
<path fill="none" stroke="#3fb950" stroke-width="2.5" d="M543.2,-155.61C535.43,-137.79 524.05,-111.69 515.55,-92.2"/>
<polygon fill="#3fb950" stroke="#3fb950" stroke-width="2.5" points="512.86,-86.02 518.54,-91.18 513.73,-86.13 516.34,-92.13 515.66,-92.43 514.97,-92.73 512.35,-86.73 512.77,-93.69 512.86,-86.02"/>
</g>
<!-- log -->
<g id="node13" class="node">
<title>log</title>
<path fill="#0d1f3c" stroke="#58a6ff" stroke-width="1.5" d="M620,-85.4C620,-85.4 590,-85.4 590,-85.4 584,-85.4 578,-79.4 578,-73.4 578,-73.4 578,-56 578,-56 578,-50 584,-44 590,-44 590,-44 620,-44 620,-44 626,-44 632,-50 632,-56 632,-56 632,-73.4 632,-73.4 632,-79.4 626,-85.4 620,-85.4"/>
<text xml:space="preserve" text-anchor="middle" x="605" y="-67.75" font-family="Helvetica Neue,Helvetica,Arial,sans-serif" font-size="11.00" fill="#58a6ff">Audit</text>
<text xml:space="preserve" text-anchor="middle" x="605" y="-54.25" font-family="Helvetica Neue,Helvetica,Arial,sans-serif" font-size="11.00" fill="#58a6ff">Log</text>
</g>
<!-- respond&#45;&gt;log -->
<g id="edge13" class="edge">
<title>respond&#45;&gt;log</title>
<path fill="none" stroke="#a371f7" stroke-width="1.3" stroke-dasharray="5,2" d="M561.72,-155.61C570.07,-138.26 582.2,-113.06 591.5,-93.75"/>
<polygon fill="#a371f7" stroke="#a371f7" stroke-width="1.3" points="594.47,-87.57 594.28,-95.24 593.78,-89.36 591.57,-93.94 591.44,-93.87 591.3,-93.81 593.51,-89.23 588.6,-92.51 594.47,-87.57"/>
</g>
<!-- retry_chk -->
<g id="node15" class="node">
<title>retry_chk</title>
<path fill="#1c2028" stroke="black" stroke-width="1.5" d="M791.1,-211.42C791.1,-211.42 750.48,-183.58 750.48,-183.58 745.53,-180.19 745.53,-173.41 750.48,-170.02 750.48,-170.02 791.1,-142.18 791.1,-142.18 796.05,-138.79 805.95,-138.79 810.9,-142.18 810.9,-142.18 851.52,-170.02 851.52,-170.02 856.47,-173.41 856.47,-180.19 851.52,-183.58 851.52,-183.58 810.9,-211.42 810.9,-211.42 805.95,-214.81 796.05,-214.81 791.1,-211.42"/>
<text xml:space="preserve" text-anchor="middle" x="801" y="-179.85" font-family="Helvetica Neue,Helvetica,Arial,sans-serif" font-size="11.00" fill="#c9d1d9">Retries</text>
<text xml:space="preserve" text-anchor="middle" x="801" y="-166.35" font-family="Helvetica Neue,Helvetica,Arial,sans-serif" font-size="11.00" fill="#c9d1d9">Left?</text>
</g>
<!-- err&#45;&gt;retry_chk -->
<g id="edge15" class="edge">
<title>err&#45;&gt;retry_chk</title>
<path fill="none" stroke="#484f58" stroke-width="1.3" d="M776.03,-302.98C780.18,-282.19 786.77,-249.14 792.14,-222.22"/>
<polygon fill="#484f58" stroke="#484f58" stroke-width="1.3" points="793.45,-215.63 795.17,-223.11 793.23,-217.54 792.23,-222.53 792.08,-222.5 791.94,-222.47 792.93,-217.48 789,-221.88 793.45,-215.63"/>
</g>
<!-- retry_chk&#45;&gt;process -->
<g id="edge16" class="edge">
<title>retry_chk&#45;&gt;process</title>
<path fill="none" stroke="#d29922" stroke-width="1.3" stroke-dasharray="5,2" d="M812.76,-210.66C827.13,-256.06 846.88,-339.95 824,-406.9 789.63,-507.47 691.77,-592.78 638.54,-633.4"/>
<polygon fill="#d29922" stroke="#d29922" stroke-width="1.3" points="633.22,-637.41 636.91,-630.68 634.66,-636.14 638.72,-633.07 638.81,-633.19 638.9,-633.31 634.84,-636.37 640.71,-635.71 633.22,-637.41"/>
<text xml:space="preserve" text-anchor="middle" x="804.72" y="-241.22" font-family="Helvetica Neue,Helvetica,Arial,sans-serif" font-size="10.00" fill="#d29922"> &#160;yes &#160;</text>
</g>
<!-- err_resp -->
<g id="node16" class="node">
<title>err_resp</title>
<path fill="#f85149" stroke="black" stroke-width="0" d="M831.59,-85.4C831.59,-85.4 770.41,-85.4 770.41,-85.4 764.41,-85.4 758.41,-79.4 758.41,-73.4 758.41,-73.4 758.41,-56 758.41,-56 758.41,-50 764.41,-44 770.41,-44 770.41,-44 831.59,-44 831.59,-44 837.59,-44 843.59,-50 843.59,-56 843.59,-56 843.59,-73.4 843.59,-73.4 843.59,-79.4 837.59,-85.4 831.59,-85.4"/>
<text xml:space="preserve" text-anchor="middle" x="801" y="-67.75" font-family="Helvetica Neue,Helvetica,Arial,sans-serif" font-size="11.00" fill="#ffffff">500</text>
<text xml:space="preserve" text-anchor="middle" x="801" y="-54.25" font-family="Helvetica Neue,Helvetica,Arial,sans-serif" font-size="11.00" fill="#ffffff">Server Error</text>
</g>
<!-- retry_chk&#45;&gt;err_resp -->
<g id="edge17" class="edge">
<title>retry_chk&#45;&gt;err_resp</title>
<path fill="none" stroke="#f85149" stroke-width="2.5" d="M801,-134.8C801,-121.52 801,-107.08 801,-94.84"/>
<polygon fill="#f85149" stroke="#f85149" stroke-width="2.5" points="801,-88.2 804.15,-95.2 801.75,-88.66 801.75,-95.2 801,-95.2 800.25,-95.2 800.25,-88.66 797.85,-95.2 801,-88.2"/>
<text xml:space="preserve" text-anchor="middle" x="818.5" y="-100.99" font-family="Helvetica Neue,Helvetica,Arial,sans-serif" font-size="10.00" fill="#f85149"> &#160;no &#160;</text>
</g>
</g>
</svg>
