<?xml version="1.0" encoding="UTF-8" standalone="no"?>
<!DOCTYPE svg PUBLIC "-//W3C//DTD SVG 1.1//EN"
 "http://www.w3.org/Graphics/SVG/1.1/DTD/svg11.dtd">
<!-- Generated by graphviz version 14.1.4 (20260321.0153)
 -->
<!-- Title: Flow Pages: 1 -->
<svg width="837pt" height="1140pt"
 viewBox="0.00 0.00 837.00 1140.00" xmlns="http://www.w3.org/2000/svg" xmlns:xlink="http://www.w3.org/1999/xlink">
<g id="graph0" class="graph" transform="scale(1 1) rotate(0) translate(72 1068.2)">
<title>Flow</title>
<polygon fill="#0d1117" stroke="none" points="-72,72 -72,-1068.2 765,-1068.2 765,72 -72,72"/>
<g id="clust1" class="cluster">
<title>cluster_entry</title>
<path fill="#0d1117" stroke="#1f6feb" stroke-width="2" stroke-dasharray="5,2" d="M20,-659.9C20,-659.9 142,-659.9 142,-659.9 148,-659.9 154,-665.9 154,-671.9 154,-671.9 154,-976.2 154,-976.2 154,-982.2 148,-988.2 142,-988.2 142,-988.2 20,-988.2 20,-988.2 14,-988.2 8,-982.2 8,-976.2 8,-976.2 8,-671.9 8,-671.9 8,-665.9 14,-659.9 20,-659.9"/>
<text xml:space="preserve" text-anchor="start" x="25.12" y="-971.9" font-family="Helvetica Neue,Helvetica,Arial,sans-serif" font-weight="bold" font-size="14.00" fill="#58a6ff">A. Request Entry</text>
</g>
<g id="clust2" class="cluster">
<title>cluster_auth</title>
<path fill="#0d1117" stroke="#d29922" stroke-width="2" stroke-dasharray="5,2" d="M174,-547.8C174,-547.8 377,-547.8 377,-547.8 383,-547.8 389,-553.8 389,-559.8 389,-559.8 389,-752 389,-752 389,-758 383,-764 377,-764 377,-764 174,-764 174,-764 168,-764 162,-758 162,-752 162,-752 162,-559.8 162,-559.8 162,-553.8 168,-547.8 174,-547.8"/>
<text xml:space="preserve" text-anchor="start" x="217.38" y="-747.7" font-family="Helvetica Neue,Helvetica,Arial,sans-serif" font-weight="bold" font-size="14.00" fill="#d29922">B. Authentication</text>
</g>
<g id="clust3" class="cluster">
<title>cluster_processing</title>
<path fill="#0d1117" stroke="#3fb950" stroke-width="2" stroke-dasharray="5,2" d="M409,-232.2C409,-232.2 529,-232.2 529,-232.2 535,-232.2 541,-238.2 541,-244.2 541,-244.2 541,-619.2 541,-619.2 541,-625.2 535,-631.2 529,-631.2 529,-631.2 409,-631.2 409,-631.2 403,-631.2 397,-625.2 397,-619.2 397,-619.2 397,-244.2 397,-244.2 397,-238.2 403,-232.2 409,-232.2"/>
<text xml:space="preserve" text-anchor="start" x="404.88" y="-614.9" font-family="Helvetica Neue,Helvetica,Arial,sans-serif" font-weight="bold" font-size="14.00" fill="#3fb950">C. Core Processing</text>
</g>
<g id="clust4" class="cluster">
<title>cluster_response</title>
<path fill="#0d1117" stroke="#f85149" stroke-width="2" stroke-dasharray="5,2" d="M343,-8C343,-8 494,-8 494,-8 500,-8 506,-14 506,-20 506,-20 506,-191.5 506,-191.5 506,-197.5 500,-203.5 494,-203.5 494,-203.5 343,-203.5 343,-203.5 337,-203.5 331,-197.5 331,-191.5 331,-191.5 331,-20 331,-20 331,-14 337,-8 343,-8"/>
<text xml:space="preserve" text-anchor="start" x="376.5" y="-187.2" font-family="Helvetica Neue,Helvetica,Arial,sans-serif" font-weight="bold" font-size="14.00" fill="#f85149">D. Response</text>
</g>
<g id="clust5" class="cluster">
<title>cluster_errors</title>
<path fill="#0d1117" stroke="#a371f7" stroke-width="2" stroke-dasharray="5,2" d="M561,-8C561,-8 673,-8 673,-8 679,-8 685,-14 685,-20 685,-20 685,-303.6 685,-303.6 685,-309.6 679,-315.6 673,-315.6 673,-315.6 561,-315.6 561,-315.6 555,-315.6 549,-309.6 549,-303.6 549,-303.6 549,-20 549,-20 549,-14 555,-8 561,-8"/>
<text xml:space="preserve" text-anchor="start" x="560.75" y="-299.3" font-family="Helvetica Neue,Helvetica,Arial,sans-serif" font-weight="bold" font-size="14.00" fill="#a371f7">E. Error Handling</text>
</g>
<!-- start -->
<g id="node1" class="node">
<title>start</title>
<path fill="#1f6feb" stroke="black" stroke-width="0" d="M104.46,-954.2C104.46,-954.2 57.54,-954.2 57.54,-954.2 51.54,-954.2 45.54,-948.2 45.54,-942.2 45.54,-942.2 45.54,-924.8 45.54,-924.8 45.54,-918.8 51.54,-912.8 57.54,-912.8 57.54,-912.8 104.46,-912.8 104.46,-912.8 110.46,-912.8 116.46,-918.8 116.46,-924.8 116.46,-924.8 116.46,-942.2 116.46,-942.2 116.46,-948.2 110.46,-954.2 104.46,-954.2"/>
<text xml:space="preserve" text-anchor="middle" x="81" y="-936.55" font-family="Helvetica Neue,Helvetica,Arial,sans-serif" font-size="11.00" fill="#ffffff">Incoming</text>
<text xml:space="preserve" text-anchor="middle" x="81" y="-923.05" font-family="Helvetica Neue,Helvetica,Arial,sans-serif" font-size="11.00" fill="#ffffff">Request</text>
</g>
<!-- validate -->
<g id="node2" class="node">
<title>validate</title>
<path fill="#1c2028" stroke="black" stroke-width="1.5" d="M70.88,-856.35C70.88,-856.35 26.2,-827.85 26.2,-827.85 21.14,-824.63 21.14,-818.17 26.2,-814.95 26.2,-814.95 70.88,-786.45 70.88,-786.45 75.94,-783.23 86.06,-783.23 91.12,-786.45 91.12,-786.45 135.8,-814.95 135.8,-814.95 140.86,-818.17 140.86,-824.63 135.8,-827.85 135.8,-827.85 91.12,-856.35 91.12,-856.35 86.06,-859.57 75.94,-859.57 70.88,-856.35"/>
<text xml:space="preserve" text-anchor="middle" x="81" y="-824.45" font-family="Helvetica Neue,Helvetica,Arial,sans-serif" font-size="11.00" fill="#c9d1d9">Validate</text>
<text xml:space="preserve" text-anchor="middle" x="81" y="-810.95" font-family="Helvetica Neue,Helvetica,Arial,sans-serif" font-size="11.00" fill="#c9d1d9">Input</text>
</g>
<!-- start&#45;&gt;validate -->
<g id="edge1" class="edge">
<title>start&#45;&gt;validate</title>
<path fill="none" stroke="#484f58" stroke-width="1.3" d="M81,-912.82C81,-901.34 81,-886.3 81,-871.8"/>
<polygon fill="#484f58" stroke="#484f58" stroke-width="1.3" points="81,-864.93 84.15,-871.93 81.15,-866.85 81.15,-871.93 81,-871.93 80.85,-871.93 80.85,-866.85 77.85,-871.93 81,-864.93"/>
</g>
<!-- reject -->
<g id="node3" class="node">
<title>reject</title>
<path fill="#3d1115" stroke="#f85149" stroke-width="1.5" d="M114.21,-709.3C114.21,-709.3 47.79,-709.3 47.79,-709.3 41.79,-709.3 35.79,-703.3 35.79,-697.3 35.79,-697.3 35.79,-679.9 35.79,-679.9 35.79,-673.9 41.79,-667.9 47.79,-667.9 47.79,-667.9 114.21,-667.9 114.21,-667.9 120.21,-667.9 126.21,-673.9 126.21,-679.9 126.21,-679.9 126.21,-697.3 126.21,-697.3 126.21,-703.3 120.21,-709.3 114.21,-709.3"/>
<text xml:space="preserve" text-anchor="middle" x="81" y="-691.65" font-family="Helvetica Neue,Helvetica,Arial,sans-serif" font-size="11.00" fill="#f85149">400</text>
<text xml:space="preserve" text-anchor="middle" x="81" y="-678.15" font-family="Helvetica Neue,Helvetica,Arial,sans-serif" font-size="11.00" fill="#f85149">Bad Request</text>
</g>
<!-- validate&#45;&gt;reject -->
<g id="edge3" class="edge">
<title>validate&#45;&gt;reject</title>
<path fill="none" stroke="#f85149" stroke-width="1.3" d="M81,-779.37C81,-759.54 81,-736.22 81,-718.32"/>
<polygon fill="#f85149" stroke="#f85149" stroke-width="1.3" points="81,-711.59 84.15,-718.59 81.15,-713.51 81.15,-718.59 81,-718.59 80.85,-718.59 80.85,-713.51 77.85,-718.59 81,-711.59"/>
<text xml:space="preserve" text-anchor="middle" x="98.5" y="-745.56" font-family="Helvetica Neue,Helvetica,Arial,sans-serif" font-size="10.00" fill="#f85149"> &#160;invalid &#160;</text>
</g>
<!-- auth -->
<g id="node4" class="node">
<title>auth</title>
<path fill="#1c2028" stroke="black" stroke-width="1.5" d="M264.28,-724.6C264.28,-724.6 203.55,-694 203.55,-694 198.19,-691.3 198.19,-685.9 203.55,-683.2 203.55,-683.2 264.28,-652.6 264.28,-652.6 269.64,-649.9 280.36,-649.9 285.72,-652.6 285.72,-652.6 346.45,-683.2 346.45,-683.2 351.81,-685.9 351.81,-691.3 346.45,-694 346.45,-694 285.72,-724.6 285.72,-724.6 280.36,-727.3 269.64,-727.3 264.28,-724.6"/>
<text xml:space="preserve" text-anchor="middle" x="275" y="-691.65" font-family="Helvetica Neue,Helvetica,Arial,sans-serif" font-size="11.00" fill="#c9d1d9">Check</text>
<text xml:space="preserve" text-anchor="middle" x="275" y="-678.15" font-family="Helvetica Neue,Helvetica,Arial,sans-serif" font-size="11.00" fill="#c9d1d9">Credentials</text>
</g>
<!-- validate&#45;&gt;auth -->
<g id="edge2" class="edge">
<title>validate&#45;&gt;auth</title>
<path fill="none" stroke="#3fb950" stroke-width="1.3" d="M112.17,-799.38C145,-777.25 196.9,-742.26 233.25,-717.75"/>
<polygon fill="#3fb950" stroke="#3fb950" stroke-width="1.3" points="238.99,-713.88 234.95,-720.4 237.49,-715.07 233.27,-717.92 233.19,-717.79 233.1,-717.67 237.32,-714.82 231.43,-715.18 238.99,-713.88"/>
<text xml:space="preserve" text-anchor="middle" x="147.08" y="-793.45" font-family="Helvetica Neue,Helvetica,Arial,sans-serif" font-size="10.00" fill="#3fb950"> &#160;valid &#160;</text>
</g>
<!-- denied -->
<g id="node5" class="node">
<title>denied</title>
<path fill="#f85149" stroke="black" stroke-width="0" d="M249.96,-597.2C249.96,-597.2 182.04,-597.2 182.04,-597.2 176.04,-597.2 170.04,-591.2 170.04,-585.2 170.04,-585.2 170.04,-567.8 170.04,-567.8 170.04,-561.8 176.04,-555.8 182.04,-555.8 182.04,-555.8 249.96,-555.8 249.96,-555.8 255.96,-555.8 261.96,-561.8 261.96,-567.8 261.96,-567.8 261.96,-585.2 261.96,-585.2 261.96,-591.2 255.96,-597.2 249.96,-597.2"/>
<text xml:space="preserve" text-anchor="middle" x="216" y="-579.55" font-family="Helvetica Neue,Helvetica,Arial,sans-serif" font-size="11.00" fill="#ffffff">401</text>
<text xml:space="preserve" text-anchor="middle" x="216" y="-566.05" font-family="Helvetica Neue,Helvetica,Arial,sans-serif" font-size="11.00" fill="#ffffff">Unauthorized</text>
</g>
<!-- auth&#45;&gt;denied -->
<g id="edge6" class="edge">
<title>auth&#45;&gt;denied</title>
<path fill="none" stroke="#f85149" stroke-width="1.3" d="M257.62,-655.16C248.91,-638.92 238.5,-619.49 230.27,-604.14"/>
<polygon fill="#f85149" stroke="#f85149" stroke-width="1.3" points="227.17,-598.35 233.26,-603.03 228.21,-599.97 230.61,-604.45 230.48,-604.52 230.35,-604.59 227.95,-600.11 227.7,-606.01 227.17,-598.35"/>
<text xml:space="preserve" text-anchor="middle" x="258.73" y="-616.68" font-family="Helvetica Neue,Helvetica,Arial,sans-serif" font-size="10.00" fill="#f85149"> &#160;fail &#160;</text>
</g>
<!-- rate_warn -->
<g id="node6" class="node">
<title>rate_warn</title>
<path fill="#2d1d00" stroke="#d29922" stroke-width="1.5" d="M369.08,-597.2C369.08,-597.2 316.92,-597.2 316.92,-597.2 310.92,-597.2 304.92,-591.2 304.92,-585.2 304.92,-585.2 304.92,-567.8 304.92,-567.8 304.92,-561.8 310.92,-555.8 316.92,-555.8 316.92,-555.8 369.08,-555.8 369.08,-555.8 375.08,-555.8 381.08,-561.8 381.08,-567.8 381.08,-567.8 381.08,-585.2 381.08,-585.2 381.08,-591.2 375.08,-597.2 369.08,-597.2"/>
<text xml:space="preserve" text-anchor="middle" x="343" y="-579.55" font-family="Helvetica Neue,Helvetica,Arial,sans-serif" font-size="11.00" fill="#d29922">Rate Limit</text>
<text xml:space="preserve" text-anchor="middle" x="343" y="-566.05" font-family="Helvetica Neue,Helvetica,Arial,sans-serif" font-size="11.00" fill="#d29922">Warning</text>
</g>
<!-- auth&#45;&gt;rate_warn -->
<g id="edge4" class="edge">
<title>auth&#45;&gt;rate_warn</title>
<path fill="none" stroke="#d29922" stroke-width="1.3" stroke-dasharray="1,5" d="M294.3,-656.34C304.38,-640.03 316.6,-620.25 326.27,-604.59"/>
<polygon fill="#d29922" stroke="#d29922" stroke-width="1.3" points="329.69,-599.06 328.69,-606.67 328.81,-600.77 326.13,-605.09 326.01,-605.01 325.88,-604.93 328.55,-600.61 323.33,-603.36 329.69,-599.06"/>
<text xml:space="preserve" text-anchor="middle" x="325.12" y="-636.25" font-family="Helvetica Neue,Helvetica,Arial,sans-serif" font-size="10.00" fill="#d29922"> &#160;near limit &#160;</text>
</g>
<!-- process -->
<g id="node7" class="node">
<title>process</title>
<path fill="#0d2818" stroke="#3fb950" stroke-width="1.5" d="M490.58,-597.2C490.58,-597.2 447.42,-597.2 447.42,-597.2 441.42,-597.2 435.42,-591.2 435.42,-585.2 435.42,-585.2 435.42,-567.8 435.42,-567.8 435.42,-561.8 441.42,-555.8 447.42,-555.8 447.42,-555.8 490.58,-555.8 490.58,-555.8 496.58,-555.8 502.58,-561.8 502.58,-567.8 502.58,-567.8 502.58,-585.2 502.58,-585.2 502.58,-591.2 496.58,-597.2 490.58,-597.2"/>
<text xml:space="preserve" text-anchor="middle" x="469" y="-579.55" font-family="Helvetica Neue,Helvetica,Arial,sans-serif" font-size="11.00" fill="#c9d1d9">Process</text>
<text xml:space="preserve" text-anchor="middle" x="469" y="-566.05" font-family="Helvetica Neue,Helvetica,Arial,sans-serif" font-size="11.00" fill="#c9d1d9">Request</text>
</g>
<!-- auth&#45;&gt;process -->
<g id="edge5" class="edge">
<title>auth&#45;&gt;process</title>
<path fill="none" stroke="#3fb950" stroke-width="1.3" d="M321.02,-669.62C344.94,-659.56 374.26,-646.05 399,-631.2 412.74,-622.95 426.94,-612.48 438.93,-602.97"/>
<polygon fill="#3fb950" stroke="#3fb950" stroke-width="1.3" points="444.11,-598.8 440.63,-605.65 442.71,-600.12 438.75,-603.31 438.66,-603.19 438.57,-603.07 442.53,-599.89 436.68,-600.74 444.11,-598.8"/>
<text xml:space="preserve" text-anchor="middle" x="355.77" y="-670.34" font-family="Helvetica Neue,Helvetica,Arial,sans-serif" font-size="10.00" fill="#3fb950"> &#160;ok &#160;</text>
</g>
<!-- cache_chk -->
<g id="node8" class="node">
<title>cache_chk</title>
<path fill="#1c2028" stroke="black" stroke-width="1.5" d="M459.22,-498.84C459.22,-498.84 420.61,-471.36 420.61,-471.36 415.72,-467.88 415.72,-460.92 420.61,-457.44 420.61,-457.44 459.22,-429.96 459.22,-429.96 464.11,-426.48 473.89,-426.48 478.78,-429.96 478.78,-429.96 517.39,-457.44 517.39,-457.44 522.28,-460.92 522.28,-467.88 517.39,-471.36 517.39,-471.36 478.78,-498.84 478.78,-498.84 473.89,-502.32 464.11,-502.32 459.22,-498.84"/>
<text xml:space="preserve" text-anchor="middle" x="469" y="-467.45" font-family="Helvetica Neue,Helvetica,Arial,sans-serif" font-size="11.00" fill="#c9d1d9">Cache</text>
<text xml:space="preserve" text-anchor="middle" x="469" y="-453.95" font-family="Helvetica Neue,Helvetica,Arial,sans-serif" font-size="11.00" fill="#c9d1d9">Hit?</text>
</g>
<!-- process&#45;&gt;cache_chk -->
<g id="edge7" class="edge">
<title>process&#45;&gt;cache_chk</title>
<path fill="none" stroke="#484f58" stroke-width="1.3" d="M469,-555.31C469,-543.89 469,-529.07 469,-514.78"/>
<polygon fill="#484f58" stroke="#484f58" stroke-width="1.3" points="469,-508.03 472.15,-515.03 469.15,-509.95 469.15,-515.03 469,-515.03 468.85,-515.03 468.85,-509.95 465.85,-515.03 469,-508.03"/>
</g>
<!-- compute -->
<g id="node9" class="node">
<title>compute</title>
<path fill="#0d2818" stroke="#3fb950" stroke-width="1.5" d="M511.21,-373C511.21,-373 462.79,-373 462.79,-373 456.79,-373 450.79,-367 450.79,-361 450.79,-361 450.79,-343.6 450.79,-343.6 450.79,-337.6 456.79,-331.6 462.79,-331.6 462.79,-331.6 511.21,-331.6 511.21,-331.6 517.21,-331.6 523.21,-337.6 523.21,-343.6 523.21,-343.6 523.21,-361 523.21,-361 523.21,-367 517.21,-373 511.21,-373"/>
<text xml:space="preserve" text-anchor="middle" x="487" y="-355.35" font-family="Helvetica Neue,Helvetica,Arial,sans-serif" font-size="11.00" fill="#c9d1d9">Compute</text>
<text xml:space="preserve" text-anchor="middle" x="487" y="-341.85" font-family="Helvetica Neue,Helvetica,Arial,sans-serif" font-size="11.00" fill="#c9d1d9">Result</text>
</g>
<!-- cache_chk&#45;&gt;compute -->
<g id="edge9" class="edge">
<title>cache_chk&#45;&gt;compute</title>
<path fill="none" stroke="#f85149" stroke-width="1.3" d="M475.04,-426.43C477.41,-411.98 480.07,-395.66 482.29,-382.11"/>
<polygon fill="#f85149" stroke="#f85149" stroke-width="1.3" points="483.42,-375.21 485.4,-382.63 483.26,-377.13 482.44,-382.15 482.29,-382.12 482.14,-382.1 482.96,-377.08 479.18,-381.61 483.42,-375.21"/>
<text xml:space="preserve" text-anchor="middle" x="497.21" y="-395.84" font-family="Helvetica Neue,Helvetica,Arial,sans-serif" font-size="10.00" fill="#f85149"> &#160;miss &#160;</text>
</g>
<!-- respond -->
<g id="node11" class="node">
<title>respond</title>
<path fill="#3d1115" stroke="#f85149" stroke-width="1.5" d="M443.33,-169.5C443.33,-169.5 392.67,-169.5 392.67,-169.5 386.67,-169.5 380.67,-163.5 380.67,-157.5 380.67,-157.5 380.67,-140.1 380.67,-140.1 380.67,-134.1 386.67,-128.1 392.67,-128.1 392.67,-128.1 443.33,-128.1 443.33,-128.1 449.33,-128.1 455.33,-134.1 455.33,-140.1 455.33,-140.1 455.33,-157.5 455.33,-157.5 455.33,-163.5 449.33,-169.5 443.33,-169.5"/>
<text xml:space="preserve" text-anchor="middle" x="418" y="-151.85" font-family="Helvetica Neue,Helvetica,Arial,sans-serif" font-size="11.00" fill="#c9d1d9">Build</text>
<text xml:space="preserve" text-anchor="middle" x="418" y="-138.35" font-family="Helvetica Neue,Helvetica,Arial,sans-serif" font-size="11.00" fill="#c9d1d9">Response</text>
</g>
<!-- cache_chk&#45;&gt;respond -->
<g id="edge8" class="edge">
<title>cache_chk&#45;&gt;respond</title>
<path fill="none" stroke="#3fb950" stroke-width="2.5" d="M452.6,-433.83C443.91,-416.62 434.03,-394.21 429,-373 412.99,-305.52 413.98,-223.45 416.03,-180.07"/>
<polygon fill="#3fb950" stroke="#3fb950" stroke-width="2.5" points="416.39,-173.2 419.17,-180.35 417.11,-173.69 416.77,-180.23 416.02,-180.19 415.27,-180.15 415.62,-173.61 412.88,-180.02 416.39,-173.2"/>
<text xml:space="preserve" text-anchor="middle" x="454.8" y="-395.39" font-family="Helvetica Neue,Helvetica,Arial,sans-serif" font-size="10.00" fill="#3fb950"> &#160;hit &#160;</text>
</g>
<!-- cache_set -->
<g id="node10" class="node">
<title>cache_set</title>
<path fill="#1c2028" stroke="#484f58" stroke-width="1.5" d="M502.71,-281.6C502.71,-281.6 463.29,-281.6 463.29,-281.6 457.29,-281.6 451.29,-275.6 451.29,-269.6 451.29,-269.6 451.29,-252.2 451.29,-252.2 451.29,-246.2 457.29,-240.2 463.29,-240.2 463.29,-240.2 502.71,-240.2 502.71,-240.2 508.71,-240.2 514.71,-246.2 514.71,-252.2 514.71,-252.2 514.71,-269.6 514.71,-269.6 514.71,-275.6 508.71,-281.6 502.71,-281.6"/>
<text xml:space="preserve" text-anchor="middle" x="483" y="-263.95" font-family="Helvetica Neue,Helvetica,Arial,sans-serif" font-size="11.00" fill="#484f58">Update</text>
<text xml:space="preserve" text-anchor="middle" x="483" y="-250.45" font-family="Helvetica Neue,Helvetica,Arial,sans-serif" font-size="11.00" fill="#484f58">Cache</text>
</g>
<!-- compute&#45;&gt;cache_set -->
<g id="edge10" class="edge">
<title>compute&#45;&gt;cache_set</title>
<path fill="none" stroke="#484f58" stroke-width="1.3" d="M486.09,-331.01C485.56,-319.01 484.87,-303.62 484.28,-290.41"/>
<polygon fill="#484f58" stroke="#484f58" stroke-width="1.3" points="483.97,-283.69 487.43,-290.54 484.21,-285.6 484.44,-290.67 484.29,-290.68 484.14,-290.69 483.91,-285.61 481.14,-290.82 483.97,-283.69"/>
</g>
<!-- err -->
<g id="node14" class="node">
<title>err</title>
<path fill="#1c0d36" stroke="#a371f7" stroke-width="1.5" d="M606.59,-281.6C606.59,-281.6 569.41,-281.6 569.41,-281.6 563.41,-281.6 557.41,-275.6 557.41,-269.6 557.41,-269.6 557.41,-252.2 557.41,-252.2 557.41,-246.2 563.41,-240.2 569.41,-240.2 569.41,-240.2 606.59,-240.2 606.59,-240.2 612.59,-240.2 618.59,-246.2 618.59,-252.2 618.59,-252.2 618.59,-269.6 618.59,-269.6 618.59,-275.6 612.59,-281.6 606.59,-281.6"/>
<text xml:space="preserve" text-anchor="middle" x="588" y="-263.95" font-family="Helvetica Neue,Helvetica,Arial,sans-serif" font-size="11.00" fill="#c9d1d9">Handle</text>
<text xml:space="preserve" text-anchor="middle" x="588" y="-250.45" font-family="Helvetica Neue,Helvetica,Arial,sans-serif" font-size="11.00" fill="#c9d1d9">Error</text>
</g>
<!-- compute&#45;&gt;err -->
<g id="edge12" class="edge">
<title>compute&#45;&gt;err</title>
<path fill="none" stroke="#f85149" stroke-width="1.3" d="M523.81,-334.53C533.26,-329.26 543,-322.88 551,-315.6 559.26,-308.09 566.65,-298.39 572.61,-289.31"/>
<polygon fill="#f85149" stroke="#f85149" stroke-width="1.3" points="576.23,-283.55 575.17,-291.16 575.34,-285.26 572.63,-289.56 572.5,-289.48 572.38,-289.4 575.08,-285.1 569.84,-287.8 576.23,-283.55"/>
<text xml:space="preserve" text-anchor="middle" x="558.81" y="-331.26" font-family="Helvetica Neue,Helvetica,Arial,sans-serif" font-size="10.00" fill="#f85149"> &#160;error &#160;</text>
</g>
<!-- cache_set&#45;&gt;respond -->
<g id="edge11" class="edge">
<title>cache_set&#45;&gt;respond</title>
<path fill="none" stroke="#484f58" stroke-width="1.3" d="M471.08,-239.71C460.79,-222.28 445.83,-196.93 434.41,-177.59"/>
<polygon fill="#484f58" stroke="#484f58" stroke-width="1.3" points="430.87,-171.6 437.14,-176.03 431.98,-173.18 434.56,-177.55 434.43,-177.63 434.3,-177.71 431.72,-173.33 431.72,-179.23 430.87,-171.6"/>
</g>
<!-- ok -->
<g id="node12" class="node">
<title>ok</title>
<path fill="#0d2818" stroke="#3fb950" stroke-width="1.5" d="M389.33,-54.7C389.33,-54.7 350.67,-54.7 350.67,-54.7 344.67,-54.7 338.67,-48.7 338.67,-42.7 338.67,-42.7 338.67,-30.7 338.67,-30.7 338.67,-24.7 344.67,-18.7 350.67,-18.7 350.67,-18.7 389.33,-18.7 389.33,-18.7 395.33,-18.7 401.33,-24.7 401.33,-30.7 401.33,-30.7 401.33,-42.7 401.33,-42.7 401.33,-48.7 395.33,-54.7 389.33,-54.7"/>
<text xml:space="preserve" text-anchor="middle" x="370" y="-33" font-family="Helvetica Neue,Helvetica,Arial,sans-serif" font-size="11.00" fill="#3fb950">200 OK</text>
</g>
<!-- respond&#45;&gt;ok -->
<g id="edge14" class="edge">
<title>respond&#45;&gt;ok</title>
<path fill="none" stroke="#3fb950" stroke-width="2.5" d="M409.2,-127.61C401.43,-109.79 390.05,-83.69 381.55,-64.2"/>
<polygon fill="#3fb950" stroke="#3fb950" stroke-width="2.5" points="378.86,-58.02 384.54,-63.18 379.73,-58.13 382.34,-64.13 381.66,-64.43 380.97,-64.73 378.35,-58.73 378.77,-65.69 378.86,-58.02"/>
</g>
<!-- log -->
<g id="node13" class="node">
<title>log</title>
<path fill="#0d1f3c" stroke="#58a6ff" stroke-width="1.5" d="M486,-57.4C486,-57.4 456,-57.4 456,-57.4 450,-57.4 444,-51.4 444,-45.4 444,-45.4 444,-28 444,-28 444,-22 450,-16 456,-16 456,-16 486,-16 486,-16 492,-16 498,-22 498,-28 498,-28 498,-45.4 498,-45.4 498,-51.4 492,-57.4 486,-57.4"/>
<text xml:space="preserve" text-anchor="middle" x="471" y="-39.75" font-family="Helvetica Neue,Helvetica,Arial,sans-serif" font-size="11.00" fill="#58a6ff">Audit</text>
<text xml:space="preserve" text-anchor="middle" x="471" y="-26.25" font-family="Helvetica Neue,Helvetica,Arial,sans-serif" font-size="11.00" fill="#58a6ff">Log</text>
</g>
<!-- respond&#45;&gt;log -->
<g id="edge13" class="edge">
<title>respond&#45;&gt;log</title>
<path fill="none" stroke="#a371f7" stroke-width="1.3" stroke-dasharray="5,2" d="M427.72,-127.61C436.07,-110.26 448.2,-85.06 457.5,-65.75"/>
<polygon fill="#a371f7" stroke="#a371f7" stroke-width="1.3" points="460.47,-59.57 460.28,-67.24 459.78,-61.36 457.57,-65.94 457.44,-65.87 457.3,-65.81 459.51,-61.23 454.6,-64.51 460.47,-59.57"/>
</g>
<!-- retry_chk -->
<g id="node15" class="node">
<title>retry_chk</title>
<path fill="#1c2028" stroke="black" stroke-width="1.5" d="M607.1,-183.42C607.1,-183.42 566.48,-155.58 566.48,-155.58 561.53,-152.19 561.53,-145.41 566.48,-142.02 566.48,-142.02 607.1,-114.18 607.1,-114.18 612.05,-110.79 621.95,-110.79 626.9,-114.18 626.9,-114.18 667.52,-142.02 667.52,-142.02 672.47,-145.41 672.47,-152.19 667.52,-155.58 667.52,-155.58 626.9,-183.42 626.9,-183.42 621.95,-186.81 612.05,-186.81 607.1,-183.42"/>
<text xml:space="preserve" text-anchor="middle" x="617" y="-151.85" font-family="Helvetica Neue,Helvetica,Arial,sans-serif" font-size="11.00" fill="#c9d1d9">Retries</text>
<text xml:space="preserve" text-anchor="middle" x="617" y="-138.35" font-family="Helvetica Neue,Helvetica,Arial,sans-serif" font-size="11.00" fill="#c9d1d9">Left?</text>
</g>
<!-- err&#45;&gt;retry_chk -->
<g id="edge15" class="edge">
<title>err&#45;&gt;retry_chk</title>
<path fill="none" stroke="#484f58" stroke-width="1.3" d="M593.32,-239.71C596.77,-226.6 601.41,-209 605.66,-192.86"/>
<polygon fill="#484f58" stroke="#484f58" stroke-width="1.3" points="607.44,-186.11 608.7,-193.68 607.09,-188 605.8,-192.92 605.65,-192.88 605.51,-192.84 606.8,-187.93 602.61,-192.08 607.44,-186.11"/>
</g>
<!-- retry_chk&#45;&gt;process -->
<g id="edge16" class="edge">
<title>retry_chk&#45;&gt;process</title>
<path fill="none" stroke="#d29922" stroke-width="1.3" stroke-dasharray="5,2" d="M628.62,-183.13C638.73,-216.83 650.29,-270.26 640,-315.6 619.26,-406.99 605.73,-431.21 549,-505.8 536.32,-522.48 519.11,-538.1 503.9,-550.3"/>
<polygon fill="#d29922" stroke="#d29922" stroke-width="1.3" points="498.77,-554.34 502.33,-547.54 500.19,-553.04 504.18,-549.89 504.27,-550.01 504.37,-550.13 500.37,-553.27 506.22,-552.49 498.77,-554.34"/>
<text xml:space="preserve" text-anchor="middle" x="620.13" y="-213.59" font-family="Helvetica Neue,Helvetica,Arial,sans-serif" font-size="10.00" fill="#d29922"> &#160;yes &#160;</text>
</g>
<!-- err_resp -->
<g id="node16" class="node">
<title>err_resp</title>
<path fill="#f85149" stroke="black" stroke-width="0" d="M647.59,-57.4C647.59,-57.4 586.41,-57.4 586.41,-57.4 580.41,-57.4 574.41,-51.4 574.41,-45.4 574.41,-45.4 574.41,-28 574.41,-28 574.41,-22 580.41,-16 586.41,-16 586.41,-16 647.59,-16 647.59,-16 653.59,-16 659.59,-22 659.59,-28 659.59,-28 659.59,-45.4 659.59,-45.4 659.59,-51.4 653.59,-57.4 647.59,-57.4"/>
<text xml:space="preserve" text-anchor="middle" x="617" y="-39.75" font-family="Helvetica Neue,Helvetica,Arial,sans-serif" font-size="11.00" fill="#ffffff">500</text>
<text xml:space="preserve" text-anchor="middle" x="617" y="-26.25" font-family="Helvetica Neue,Helvetica,Arial,sans-serif" font-size="11.00" fill="#ffffff">Server Error</text>
</g>
<!-- retry_chk&#45;&gt;err_resp -->
<g id="edge17" class="edge">
<title>retry_chk&#45;&gt;err_resp</title>
<path fill="none" stroke="#f85149" stroke-width="2.5" d="M617,-106.8C617,-93.52 617,-79.08 617,-66.84"/>
<polygon fill="#f85149" stroke="#f85149" stroke-width="2.5" points="617,-60.2 620.15,-67.2 617.75,-60.66 617.75,-67.2 617,-67.2 616.25,-67.2 616.25,-60.66 613.85,-67.2 617,-60.2"/>
<text xml:space="preserve" text-anchor="middle" x="634.5" y="-72.99" font-family="Helvetica Neue,Helvetica,Arial,sans-serif" font-size="10.00" fill="#f85149"> &#160;no &#160;</text>
</g>
</g>
</svg>
